<svg xmlns="http://www.w3.org/2000/svg" viewBox="0 0 350.36 192.56"><defs><style>.cls-1{fill:#495924;}</style></defs><title>Risorsa 2</title><g id="Livello_2" data-name="Livello 2"><g id="Livello_1-2" data-name="Livello 1"><path class="cls-1" d="M42.65,116.87q-3.9,3.57-3.91,12.34v2.06H56.58v11H38.74V191.6H26.26V142.25H15.42v-11H26.26v-3q0-27,30.32-25.79v11Q46.56,113.31,42.65,116.87Z"/><rect class="cls-1" x="69.48" y="90.07" width="12.49" height="101.54"/><path class="cls-1" d="M149.79,120a33.4,33.4,0,0,1,13.45,13.44q4.88,8.79,4.87,20.59t-4.87,20.51a33.5,33.5,0,0,1-13.45,13.38,39.94,39.94,0,0,1-19.41,4.66A40,40,0,0,1,111,187.9a34,34,0,0,1-13.51-13.38q-5-8.72-4.94-20.51t4.94-20.59A33.85,33.85,0,0,1,111,120a40,40,0,0,1,19.42-4.67A39.94,39.94,0,0,1,149.79,120ZM118,129.31a22.64,22.64,0,0,0-9.19,9.26q-3.49,6.24-3.5,15.44,0,9,3.5,15.3a22.64,22.64,0,0,0,9.19,9.26,27,27,0,0,0,24.84,0,22.7,22.7,0,0,0,9.19-9.26q3.49-6.26,3.5-15.3,0-9.19-3.5-15.44a22.7,22.7,0,0,0-9.19-9.26,27,27,0,0,0-24.84,0Z"/><path class="cls-1" d="M279.58,116.27,257.9,191.6H244.45l-20.72-61.33L202.88,191.6H189.29l-21.4-75.33h12.62l16.06,63.4,20.85-63.4h13l21,63.26,16.19-63.26Z"/><path class="cls-1" d="M349.81,156.61H289.57q.42,12.9,7.34,19.35a24,24,0,0,0,16.95,6.45q9,0,15.16-4.6a19,19,0,0,0,7.48-12.28h13.31a31.45,31.45,0,0,1-18.39,23.6,40.6,40.6,0,0,1-17,3.43,38.78,38.78,0,0,1-19.21-4.66,33,33,0,0,1-13.11-13.38q-4.72-8.72-4.73-20.51a42.84,42.84,0,0,1,4.73-20.59A32.91,32.91,0,0,1,295.2,120a38.78,38.78,0,0,1,19.21-4.67A38,38,0,0,1,333.55,120,32.12,32.12,0,0,1,346,132.46a35.08,35.08,0,0,1,4.33,17.29A37.62,37.62,0,0,1,349.81,156.61Zm-14.82-20a20.11,20.11,0,0,0-8.65-8.37,26.31,26.31,0,0,0-11.93-2.74,24.67,24.67,0,0,0-17.29,6.38q-7,6.38-7.55,18.73h48.16Q338.15,142.21,335,136.58Z"/><path class="cls-1" d="M153.26,70.41a74.09,74.09,0,0,0,1.2-34,3.88,3.88,0,0,0-5.34-2.87c-1.83.84-3.53,1.95-5.36,2.79Q133.43,41,123,45.6a173,173,0,0,0-22.79,12.28c-5.83,3.71-10.41,8.63-14.56,14.06a5.35,5.35,0,0,1-2.54,1.92c-1.85.51-3.25-.69-3.85-2.64-1.65-5.42-3-11-5.13-16.2C69.55,43.52,62.61,33.67,52,26.8,45.29,22.41,38.49,18.08,31.55,14,26.49,11,21.11,8.59,16,5.76c-2.74-1.5-5.29-3.33-7.94-5a3.71,3.71,0,0,0-5,.5,3.7,3.7,0,0,0-1,1.6A60,60,0,0,0,3,36.91c4.81,15.19,14.16,27,26.92,36.27A103.9,103.9,0,0,0,61.35,88.47c1.78.54,3.56,1.07,5.33,1.62,1.93.59,2.69,1.56,2.69,3.56,0,12.11.75,28.27.75,40.38H81.87c0-2.86,0-11.77,0-14.63s1-3.86,3.79-4a103.83,103.83,0,0,0,21.16-3.52c11.07-3.08,23-8.21,31.19-16.45C145.56,87.8,150.56,80.74,153.26,70.41Z"/></g></g></svg>