<svg xmlns="http://www.w3.org/2000/svg" viewBox="0 0 231.23 409.26"><defs><style>.cls-1{fill:#fff;}</style></defs><title>Risorsa 3</title><g id="Livello_2" data-name="Livello 2"><g id="Livello_1-2" data-name="Livello 1"><path class="cls-1" d="M33.46,359.3A19.88,19.88,0,0,1,40.11,372H31.66a12.27,12.27,0,0,0-3.93-7.82,12.83,12.83,0,0,0-9-3.06q-4.75,0-7.43,2.28a7.71,7.71,0,0,0-2.67,6.17,6.37,6.37,0,0,0,1.8,4.71A11.47,11.47,0,0,0,14.91,377a72.33,72.33,0,0,0,7.33,2,71.84,71.84,0,0,1,9.56,2.77A15,15,0,0,1,38,386.24a12.75,12.75,0,0,1,2.57,8.36,13.11,13.11,0,0,1-4.9,10.58q-4.9,4.08-13.06,4.08-9.52,0-15.54-4.56A18.21,18.21,0,0,1,0,392H8.55a11.11,11.11,0,0,0,4.22,7.87q3.73,3,9.86,3a10.28,10.28,0,0,0,7.14-2.33,7.87,7.87,0,0,0,2.57-6.12,6.69,6.69,0,0,0-1.85-4.95,12.14,12.14,0,0,0-4.56-2.82,70.26,70.26,0,0,0-7.48-2A71.71,71.71,0,0,1,9,381.87a14.41,14.41,0,0,1-6-4.32,12.08,12.08,0,0,1-2.47-8,13.43,13.43,0,0,1,5-10.83q5-4.12,13.5-4.12Q28,354.59,33.46,359.3Z"/><path class="cls-1" d="M87.45,358.47A20.29,20.29,0,0,1,95,368.86V355.27h8.83v53.31H95V395a20.32,20.32,0,0,1-7.53,10.4,21.9,21.9,0,0,1-13.16,3.88A24.17,24.17,0,0,1,61.67,406,22.81,22.81,0,0,1,53,396.49,31.4,31.4,0,0,1,49.82,382,31.73,31.73,0,0,1,53,367.4a22.74,22.74,0,0,1,8.69-9.51,24.17,24.17,0,0,1,12.62-3.3A21.9,21.9,0,0,1,87.45,358.47Zm-23.69,9.18q-4.9,5.19-4.91,14.32t4.91,14.33q4.89,5.19,13.06,5.19a18.13,18.13,0,0,0,9.37-2.43,16.92,16.92,0,0,0,6.46-6.84A21.7,21.7,0,0,0,95,382a22,22,0,0,0-2.33-10.29,16.58,16.58,0,0,0-6.46-6.85,18.49,18.49,0,0,0-9.37-2.38Q68.66,362.45,63.76,367.65Z"/><path class="cls-1" d="M161,360.36q5.73,6,5.73,17.24v31h-8.83v-30.2q0-8-4.08-12.24t-11.07-4.27q-7.29,0-11.66,4.71t-4.37,13.74v28.26H117.9V355.27h8.83v12.62a18.13,18.13,0,0,1,7.24-10,21,21,0,0,1,12-3.5Q155.29,354.39,161,360.36Z"/><path class="cls-1" d="M218.26,357.89a23.62,23.62,0,0,1,9.52,9.51A29.56,29.56,0,0,1,231.23,382a29.26,29.26,0,0,1-3.45,14.52,23.71,23.71,0,0,1-9.52,9.47,30.25,30.25,0,0,1-27.48,0,24,24,0,0,1-9.57-9.47A29,29,0,0,1,177.72,382a29.25,29.25,0,0,1,3.49-14.57,23.92,23.92,0,0,1,9.57-9.51,30.25,30.25,0,0,1,27.48,0Zm-22.53,6.6a16,16,0,0,0-6.5,6.56,25.08,25.08,0,0,0,0,21.75,16,16,0,0,0,6.5,6.56,19.2,19.2,0,0,0,17.58,0,16.07,16.07,0,0,0,6.51-6.56,25.18,25.18,0,0,0,0-21.75,16.07,16.07,0,0,0-6.51-6.56,19.12,19.12,0,0,0-17.58,0Z"/><path class="cls-1" d="M50,187.25c8.88,9,19.74,14.56,31.8,17.91a112.38,112.38,0,0,0,23,3.84c3,.19,4.13,1.45,4.13,4.4,0,3.11.59,21.85.59,25h15.82c0-13.18-.59-42-.58-55.18,0-2.18.83-3.24,2.93-3.88,1.94-.6,3.87-1.18,5.81-1.76a113.39,113.39,0,0,0,34.27-16.65c13.88-10.09,24.07-23,29.31-39.51a65.47,65.47,0,0,0,1-37.08A4.31,4.31,0,0,0,191.59,82c-2.89,1.8-5.66,3.81-8.64,5.44-5.62,3.08-11.48,5.73-17,9-7.56,4.44-15,9.16-22.31,13.94-11.52,7.48-19.07,18.21-24.1,30.74-2.3,5.7-3.79,11.74-5.59,17.64-.65,2.13-2.18,3.42-4.19,2.88a5.85,5.85,0,0,1-2.77-2.1c-4.52-5.91-9.51-11.27-15.86-15.31a189.48,189.48,0,0,0-24.82-13.38q-11.3-5-22.56-10.15c-2-.91-3.85-2.12-5.84-3a4.23,4.23,0,0,0-5.82,3.13,80.84,80.84,0,0,0,1.31,37.08A64.06,64.06,0,0,0,50,187.25Zm80.83-31.36c1.43-4,2.79-8.08,4.5-12,4.39-10.05,11.77-17.43,20.89-23.39,8.34-5.44,17-10.17,25.83-14.81.55-.28,1.15-.48,1.72-.71l.61.25c-.35,2.37-.55,4.77-1.07,7.09a58.47,58.47,0,0,1-18.67,31.31c-8.49,7.62-18.39,12.91-29,16.83a3.53,3.53,0,0,1-3.85-.78A3.32,3.32,0,0,1,130.79,155.89ZM46.54,139.42c2.18.88,4.09,1.62,6,2.41,10.79,4.48,21.29,9.53,31,16A43.45,43.45,0,0,1,97.4,173.56a147.22,147.22,0,0,1,6.38,14c1.36,3.31-.52,5.75-4.09,5.33-12-1.4-23.42-4.65-33.31-12a45.42,45.42,0,0,1-17-24.2c-1.26-4.36-2-8.88-2.84-13.35A22.62,22.62,0,0,1,46.54,139.42Z"/><path class="cls-1" d="M44,106.07c8.88,9,19.74,14.55,31.8,17.91a112.38,112.38,0,0,0,23,3.84c3,.19,4.13,1.45,4.13,4.4,0,3.11.59,31.85.59,35h15.82c0-13.18-.59-52-.58-65.18,0-2.19.83-3.24,2.93-3.89l5.81-1.75A113.42,113.42,0,0,0,161.77,79.7c13.88-10.09,24.07-23,29.31-39.5a65.51,65.51,0,0,0,1-37.09,4.1,4.1,0,0,0-1-1.74,4,4,0,0,0-5.5-.54c-2.89,1.81-5.66,3.81-8.64,5.45-5.62,3.08-11.48,5.73-17,9-7.56,4.44-15,9.16-22.31,13.93-11.52,7.48-19.07,18.22-24.1,30.74-2.3,5.71-3.79,11.74-5.59,17.65-.65,2.12-2.18,3.42-4.19,2.87a5.79,5.79,0,0,1-2.77-2.1C96.47,72.43,91.48,67.08,85.13,63A189.48,189.48,0,0,0,60.31,49.66q-11.3-5-22.56-10.15c-2-.91-3.85-2.12-5.84-3a4.23,4.23,0,0,0-5.82,3.12A80.88,80.88,0,0,0,27.4,76.69,64.06,64.06,0,0,0,44,106.07ZM124.79,74.7c1.43-4,2.79-8.07,4.5-12,4.39-10.06,11.77-17.43,20.89-23.39,8.34-5.45,17-10.17,25.83-14.81.55-.29,1.15-.48,1.72-.72l.61.26c-.35,2.36-.55,4.76-1.07,7.09A58.47,58.47,0,0,1,158.6,62.46c-8.49,7.61-18.39,12.91-29,16.82a3.53,3.53,0,0,1-3.85-.77A3.34,3.34,0,0,1,124.79,74.7ZM40.54,58.24c2.18.88,4.09,1.62,6,2.41a175.75,175.75,0,0,1,31,16.05A43.45,43.45,0,0,1,91.4,92.38a147.22,147.22,0,0,1,6.38,14c1.36,3.3-.52,5.74-4.09,5.33-12-1.4-23.42-4.65-33.31-12a45.44,45.44,0,0,1-17-24.21c-1.26-4.35-2-8.88-2.84-13.34A22.64,22.64,0,0,1,40.54,58.24Z"/><path class="cls-1" d="M115.42,310.58c44,0,79.6-43,79.6-96H35.82C35.82,267.59,71.46,310.58,115.42,310.58Z"/></g></g></svg>