<svg xmlns="http://www.w3.org/2000/svg" viewBox="0 0 302.8 383.34"><defs><style>.cls-1{fill:#fff;}</style></defs><title>Risorsa 4</title><g id="Livello_2" data-name="Livello 2"><g id="Livello_1-2" data-name="Livello 1"><path class="cls-1" d="M84.63,151.14c8.88,9,19.74,14.56,31.8,17.91a112.27,112.27,0,0,0,23,3.84c3,.19,4.13,1.45,4.13,4.4,0,3.11.59,21.85.59,25H160c0-13.18-.58-42-.57-55.18,0-2.19.83-3.24,2.93-3.88,1.93-.6,3.87-1.18,5.81-1.76a113.53,113.53,0,0,0,34.27-16.66c13.88-10.08,24.07-23,29.31-39.5a65.39,65.39,0,0,0,1-37.08,4,4,0,0,0-1-1.75,4,4,0,0,0-5.5-.54c-2.89,1.81-5.67,3.81-8.65,5.45-5.61,3.08-11.47,5.73-17,9-7.56,4.44-15,9.16-22.31,13.94-11.52,7.48-19.07,18.21-24.1,30.73-2.3,5.71-3.79,11.75-5.59,17.65-.65,2.12-2.18,3.42-4.19,2.87a5.77,5.77,0,0,1-2.77-2.09c-4.52-5.91-9.51-11.27-15.86-15.31A189.48,189.48,0,0,0,101,94.73q-11.3-5-22.57-10.15c-2-.91-3.84-2.12-5.83-3a4.23,4.23,0,0,0-5.82,3.12,80.6,80.6,0,0,0,1.31,37.09A64.06,64.06,0,0,0,84.63,151.14Zm80.83-31.36c1.43-4,2.79-8.08,4.5-12,4.39-10.06,11.77-17.43,20.89-23.39,8.34-5.45,17.05-10.17,25.83-14.81.55-.29,1.15-.48,1.72-.72l.61.26c-.35,2.36-.55,4.76-1.07,7.09a58.47,58.47,0,0,1-18.67,31.31c-8.49,7.62-18.39,12.91-29.05,16.82a3.53,3.53,0,0,1-3.85-.77A3.31,3.31,0,0,1,165.46,119.78ZM81.21,103.31c2.18.88,4.09,1.62,6,2.41,10.79,4.48,21.29,9.53,31,16a43.54,43.54,0,0,1,13.88,15.68,147.14,147.14,0,0,1,6.37,14c1.37,3.31-.52,5.74-4.08,5.33-12-1.4-23.42-4.65-33.31-12a45.41,45.41,0,0,1-17-24.21c-1.27-4.35-2-8.88-2.84-13.34A22.64,22.64,0,0,1,81.21,103.31Z"/><path class="cls-1" d="M119.8,26.93A232.58,232.58,0,0,0,95,13.55q-11.3-5-22.57-10.15c-2-.91-3.84-2.13-5.83-3a4.24,4.24,0,0,0-5.82,3.13,80.61,80.61,0,0,0,1.31,37.09A64.06,64.06,0,0,0,78.63,70c8.88,9,19.73,14.55,31.8,17.91a112.38,112.38,0,0,0,23,3.84c3,.19,4.13,1.45,4.13,4.4,0,3.11.59,31.85.59,35H154c0-13.19,2.58-45.38-.54-58.19C150.57,61,135.53,36.33,119.8,26.93Zm8.56,48.67c-12-1.4-23.42-4.65-33.31-12a45.42,45.42,0,0,1-17-24.2C76.81,35,76.1,30.49,75.24,26a22.51,22.51,0,0,1,0-3.89c2.18.88,4.09,1.62,6,2.4a176.46,176.46,0,0,1,31,16.06,43.37,43.37,0,0,1,13.88,15.68,147,147,0,0,1,6.37,14C133.81,73.57,131.92,76,128.36,75.6Z"/><path class="cls-1" d="M42.05,331.78a22.74,22.74,0,0,1,8.69,9.51,31.73,31.73,0,0,1,3.16,14.57,31.4,31.4,0,0,1-3.16,14.52,22.81,22.81,0,0,1-8.69,9.47,24.17,24.17,0,0,1-12.62,3.3,21.72,21.72,0,0,1-13.16-3.93,20,20,0,0,1-7.43-10.35v13.6H0V310.6H8.84v32.15a20,20,0,0,1,7.43-10.34,21.66,21.66,0,0,1,13.16-3.94A24.09,24.09,0,0,1,42.05,331.78Zm-24.47,6.94a16.38,16.38,0,0,0-6.51,6.85,23.8,23.8,0,0,0,0,20.54A16.77,16.77,0,0,0,17.58,373a18.18,18.18,0,0,0,9.32,2.43q8.25,0,13.16-5.2T45,355.86q0-9.14-4.9-14.32t-13.16-5.2A18.44,18.44,0,0,0,17.58,338.72Z"/><path class="cls-1" d="M112.85,329.15v53.32H104V369.94a17.93,17.93,0,0,1-7.24,10,21.4,21.4,0,0,1-12.09,3.44q-9.23,0-15-6T64,360.23V329.15h8.84v30.21q0,8,4.07,12.28T88,376q7.28,0,11.65-4.71T104,357.51V329.15Z"/><path class="cls-1" d="M165,331.78a23.6,23.6,0,0,1,9.51,9.51,29.56,29.56,0,0,1,3.45,14.57,29.26,29.26,0,0,1-3.45,14.52,23.68,23.68,0,0,1-9.51,9.47,30.28,30.28,0,0,1-27.49,0,24.05,24.05,0,0,1-9.56-9.47,29,29,0,0,1-3.5-14.52,29.26,29.26,0,0,1,3.5-14.57,24,24,0,0,1,9.56-9.51,30.19,30.19,0,0,1,27.49,0Zm-22.53,6.6a16,16,0,0,0-6.51,6.55,25.11,25.11,0,0,0,0,21.76,16,16,0,0,0,6.51,6.55,19.1,19.1,0,0,0,17.57,0,16,16,0,0,0,6.51-6.55,25.11,25.11,0,0,0,0-21.76,16,16,0,0,0-6.51-6.55,19.1,19.1,0,0,0-17.57,0Z"/><path class="cls-1" d="M232.59,334.25q5.73,6,5.73,17.24v31h-8.84v-30.2q0-8-4.08-12.24t-11.07-4.27q-7.29,0-11.65,4.71t-4.37,13.74v28.26h-8.84V329.15h8.84v12.63a18.16,18.16,0,0,1,7.23-10,20.89,20.89,0,0,1,12-3.5Q226.86,328.28,232.59,334.25Z"/><path class="cls-1" d="M289.83,331.78a23.62,23.62,0,0,1,9.52,9.51,29.56,29.56,0,0,1,3.45,14.57,29.26,29.26,0,0,1-3.45,14.52,23.71,23.71,0,0,1-9.52,9.47,30.25,30.25,0,0,1-27.48,0,24,24,0,0,1-9.56-9.47,29,29,0,0,1-3.5-14.52,29.26,29.26,0,0,1,3.5-14.57,23.9,23.9,0,0,1,9.56-9.51,30.17,30.17,0,0,1,27.48,0Zm-22.53,6.6a16.08,16.08,0,0,0-6.5,6.55,25.11,25.11,0,0,0,0,21.76,16.08,16.08,0,0,0,6.5,6.55,19.12,19.12,0,0,0,17.58,0,16,16,0,0,0,6.51-6.55,25.11,25.11,0,0,0,0-21.76,16,16,0,0,0-6.51-6.55,19.12,19.12,0,0,0-17.58,0Z"/><path class="cls-1" d="M150.09,284.46c44,0,79.6-43,79.6-96H70.49C70.49,241.48,106.13,284.46,150.09,284.46Z"/></g></g></svg>