<svg xmlns="http://www.w3.org/2000/svg" viewBox="0 0 299.59 338.08"><defs><style>.cls-1{fill:#fff;}</style></defs><title>Risorsa 5</title><g id="Livello_2" data-name="Livello 2"><g id="Livello_1-2" data-name="Livello 1"><path class="cls-1" d="M85.6,106.07c8.88,9,19.74,14.55,31.8,17.91a112.38,112.38,0,0,0,23,3.84c3,.19,4.13,1.45,4.13,4.4,0,3.11.59,21.85.59,25H161c0-13.18-.59-42-.57-55.18,0-2.19.82-3.24,2.92-3.89l5.81-1.75A113.42,113.42,0,0,0,203.41,79.7c13.88-10.09,24.07-23,29.31-39.5a65.51,65.51,0,0,0,1.05-37.09,4.1,4.1,0,0,0-1-1.74,4,4,0,0,0-5.5-.54c-2.89,1.81-5.66,3.81-8.64,5.45-5.62,3.08-11.48,5.73-17,9-7.56,4.44-15,9.16-22.31,13.93-11.52,7.48-19.07,18.22-24.1,30.74-2.3,5.71-3.79,11.74-5.59,17.65-.65,2.12-2.18,3.42-4.19,2.87a5.79,5.79,0,0,1-2.77-2.1c-4.52-5.91-9.51-11.26-15.86-15.3A189.48,189.48,0,0,0,102,49.66q-11.3-5-22.56-10.15c-2-.91-3.85-2.12-5.84-3a4.23,4.23,0,0,0-5.82,3.12A80.88,80.88,0,0,0,69,76.69,64.06,64.06,0,0,0,85.6,106.07ZM166.43,74.7c1.43-4,2.79-8.07,4.5-12,4.39-10.06,11.77-17.43,20.89-23.39,8.34-5.45,17.05-10.17,25.83-14.81.55-.29,1.15-.48,1.72-.72l.61.26c-.35,2.36-.55,4.76-1.07,7.09a58.47,58.47,0,0,1-18.67,31.31c-8.49,7.61-18.39,12.91-29.05,16.82a3.53,3.53,0,0,1-3.85-.77A3.34,3.34,0,0,1,166.43,74.7ZM82.18,58.24c2.18.88,4.09,1.62,6,2.41a176.18,176.18,0,0,1,31,16.05A43.51,43.51,0,0,1,133,92.38a147.22,147.22,0,0,1,6.38,14c1.36,3.3-.52,5.74-4.09,5.33-12-1.4-23.42-4.65-33.31-12a45.44,45.44,0,0,1-17-24.21c-1.26-4.35-2-8.88-2.84-13.34A22.64,22.64,0,0,1,82.18,58.24Z"/><path class="cls-1" d="M37.63,287.29a20.23,20.23,0,0,1,7.53,10.39v-13.6H54V337.4H45.16V323.8a20.23,20.23,0,0,1-7.53,10.39,21.9,21.9,0,0,1-13.16,3.89,24.17,24.17,0,0,1-12.62-3.3,22.81,22.81,0,0,1-8.69-9.47,35.05,35.05,0,0,1,0-29.09,22.83,22.83,0,0,1,8.69-9.52,24.17,24.17,0,0,1,12.62-3.3A21.9,21.9,0,0,1,37.63,287.29Zm-23.69,9.17Q9,301.67,9,310.79t4.91,14.32q4.89,5.2,13.06,5.2a18.13,18.13,0,0,0,9.37-2.43A17,17,0,0,0,42.83,321a21.66,21.66,0,0,0,2.33-10.24,22,22,0,0,0-2.33-10.3,16.55,16.55,0,0,0-6.46-6.84A18.39,18.39,0,0,0,27,291.27Q18.84,291.27,13.94,296.46Z"/><path class="cls-1" d="M76.91,265.53V337.4H68.08V265.53Z"/><path class="cls-1" d="M99.93,265.53V337.4H91.09V265.53Z"/><path class="cls-1" d="M162.76,312.63H120.13q.28,9.14,5.2,13.7a16.93,16.93,0,0,0,12,4.56,17.33,17.33,0,0,0,10.73-3.25,13.43,13.43,0,0,0,5.29-8.69h9.42a22.2,22.2,0,0,1-4.32,9.9,22.45,22.45,0,0,1-8.69,6.8,28.77,28.77,0,0,1-12,2.43,27.47,27.47,0,0,1-13.6-3.3,23.3,23.3,0,0,1-9.27-9.47,33.25,33.25,0,0,1,0-29.09,23.3,23.3,0,0,1,9.27-9.52,27.47,27.47,0,0,1,13.6-3.3,26.88,26.88,0,0,1,13.55,3.3,22.8,22.8,0,0,1,8.83,8.84,24.87,24.87,0,0,1,3.06,12.24A26.13,26.13,0,0,1,162.76,312.63Zm-10.49-14.18a14.23,14.23,0,0,0-6.11-5.92,18.7,18.7,0,0,0-8.45-1.94,17.48,17.48,0,0,0-12.24,4.51q-4.95,4.51-5.34,13.26h34.09A18.19,18.19,0,0,0,152.27,298.45Z"/><path class="cls-1" d="M191.22,286.27a22.78,22.78,0,0,1,12-3.06v9.61h-2.72c-5,0-9.06,1.28-12.24,3.84s-4.76,6.78-4.76,12.67V337.4h-8.83V284.08h8.83v10.78A19.61,19.61,0,0,1,191.22,286.27Z"/><path class="cls-1" d="M237.44,329.63v7.77h-6.6q-8.16,0-12.19-3.89t-4-13V291.75h-8v-7.67h8v-13.3h8.94v13.3h13.79v7.67H223.56v28.94c0,3.44.63,5.78,1.89,7s3.45,1.9,6.55,1.9Z"/><path class="cls-1" d="M283.23,287.29a20.29,20.29,0,0,1,7.53,10.39v-13.6h8.83V337.4h-8.83V323.8a20.29,20.29,0,0,1-7.53,10.39,21.9,21.9,0,0,1-13.16,3.89,24.15,24.15,0,0,1-12.62-3.3,22.9,22.9,0,0,1-8.7-9.47,35.16,35.16,0,0,1,0-29.09,22.91,22.91,0,0,1,8.7-9.52,24.15,24.15,0,0,1,12.62-3.3A21.9,21.9,0,0,1,283.23,287.29Zm-23.7,9.17q-4.9,5.21-4.9,14.33t4.9,14.32q4.91,5.2,13.07,5.2a18.13,18.13,0,0,0,9.37-2.43,17,17,0,0,0,6.46-6.85,21.66,21.66,0,0,0,2.33-10.24,22,22,0,0,0-2.33-10.3,16.55,16.55,0,0,0-6.46-6.84,18.39,18.39,0,0,0-9.37-2.38Q264.44,291.27,259.53,296.46Z"/><path class="cls-1" d="M151.06,239.39c44,0,79.6-43,79.6-96H71.46C71.46,196.41,107.1,239.39,151.06,239.39Z"/></g></g></svg>