<svg xmlns="http://www.w3.org/2000/svg" viewBox="0 0 293.67 301.97"><defs><style>.cls-1{fill:#fff;}</style></defs><title>Risorsa 6</title><g id="Livello_2" data-name="Livello 2"><g id="Livello_1-2" data-name="Livello 1"><path class="cls-1" d="M143.43,45a52.47,52.47,0,0,0-6.48-6.6c-3.44-2.94-9.78-8.49-14.4-11.43A189.57,189.57,0,0,0,97.73,13.55Q86.42,8.52,75.16,3.4c-2-.91-3.85-2.13-5.84-3a4.23,4.23,0,0,0-5.81,3.13,80.74,80.74,0,0,0,1.3,37.09A64.08,64.08,0,0,0,81.38,70c8.87,9,19.73,14.55,31.79,17.91a111.69,111.69,0,0,0,23,3.83c3,.2,4.13,1.46,4.14,4.41,0,3.11.59,21.85.59,25h15.81c0-13.19.8-42.07-.57-55.18C155.74,61.65,149.07,51.86,143.43,45ZM131.1,75.6c-12-1.4-23.42-4.65-33.3-12a45.31,45.31,0,0,1-17-24.2C79.56,35,78.84,30.49,78,26a23.56,23.56,0,0,1,0-3.89c2.18.88,4.09,1.62,6,2.4a176.81,176.81,0,0,1,31,16.06,43.26,43.26,0,0,1,13.87,15.68,147,147,0,0,1,6.38,14C136.56,73.57,134.67,76,131.1,75.6Z"/><path class="cls-1" d="M43.12,252.73a23,23,0,0,1,8.25,14.57H42.05a13.66,13.66,0,0,0-5.29-9A17.33,17.33,0,0,0,26,255.06a17.12,17.12,0,0,0-8.5,2.14,15.56,15.56,0,0,0-6.17,6.55,26.78,26.78,0,0,0,0,21.85,15.59,15.59,0,0,0,6.17,6.56,17.22,17.22,0,0,0,8.5,2.13A17.16,17.16,0,0,0,36.76,291a13.82,13.82,0,0,0,5.29-9h9.32a22.89,22.89,0,0,1-8.25,14.62Q36.42,302,26.22,302a27.39,27.39,0,0,1-13.6-3.31,23.27,23.27,0,0,1-9.27-9.46,33.25,33.25,0,0,1,0-29.09,23.24,23.24,0,0,1,9.27-9.52,27.5,27.5,0,0,1,13.6-3.3Q36.42,247.29,43.12,252.73Z"/><path class="cls-1" d="M79.44,250.16a22.78,22.78,0,0,1,12-3.06v9.61H88.76c-5,0-9.06,1.28-12.24,3.84s-4.75,6.78-4.75,12.67v28.07H62.93V248h8.84v10.78A19.48,19.48,0,0,1,79.44,250.16Z"/><path class="cls-1" d="M100.32,228.4a7.12,7.12,0,0,1,8.74,0,5.52,5.52,0,0,1,0,7.87,7.12,7.12,0,0,1-8.74,0,5.52,5.52,0,0,1,0-7.87ZM109.06,248v53.32h-8.84V248Z"/><path class="cls-1" d="M148.68,293.52v7.77h-6.6q-8.16,0-12.19-3.89t-4-13V255.64h-8V248h8v-13.3h8.93V248h13.79v7.67H134.79v28.94q0,5.15,1.9,7t6.55,1.9Z"/><path class="cls-1" d="M159.56,228.4a7.12,7.12,0,0,1,8.74,0,5.52,5.52,0,0,1,0,7.87,7.12,7.12,0,0,1-8.74,0,5.49,5.49,0,0,1,0-7.87ZM168.3,248v53.32h-8.84V248Z"/><path class="cls-1" d="M223,252.73a23.06,23.06,0,0,1,8.26,14.57H221.9a13.66,13.66,0,0,0-5.29-9,17.33,17.33,0,0,0-10.73-3.25,17.12,17.12,0,0,0-8.5,2.14,15.56,15.56,0,0,0-6.17,6.55,26.78,26.78,0,0,0,0,21.85,15.59,15.59,0,0,0,6.17,6.56A18.61,18.61,0,0,0,216.61,291a13.82,13.82,0,0,0,5.29-9h9.33A23,23,0,0,1,223,296.58q-6.71,5.39-16.9,5.39a27.36,27.36,0,0,1-13.59-3.31,23.36,23.36,0,0,1-9.28-9.46,33.25,33.25,0,0,1,0-29.09,23.33,23.33,0,0,1,9.28-9.52,27.46,27.46,0,0,1,13.59-3.3Q216.27,247.29,223,252.73Z"/><path class="cls-1" d="M280.7,250.59a23.64,23.64,0,0,1,9.52,9.52,32.39,32.39,0,0,1,0,29.09,23.68,23.68,0,0,1-9.52,9.46,30.17,30.17,0,0,1-27.48,0,24.05,24.05,0,0,1-9.57-9.46,32.05,32.05,0,0,1,0-29.09,24,24,0,0,1,9.57-9.52,30.25,30.25,0,0,1,27.48,0Zm-22.53,6.61a16.08,16.08,0,0,0-6.5,6.55,22.11,22.11,0,0,0-2.48,10.93,21.83,21.83,0,0,0,2.48,10.82,16,16,0,0,0,6.5,6.56,19.12,19.12,0,0,0,17.58,0,16,16,0,0,0,6.51-6.56,21.83,21.83,0,0,0,2.47-10.82,22.11,22.11,0,0,0-2.47-10.93,16,16,0,0,0-6.51-6.55,19.12,19.12,0,0,0-17.58,0Z"/><path class="cls-1" d="M146.83,203.28c44,0,79.6-43,79.6-96H67.23C67.23,160.29,102.87,203.28,146.83,203.28Z"/></g></g></svg>