<svg xmlns="http://www.w3.org/2000/svg" viewBox="0 0 520.61 488.29"><defs><style>.cls-1{fill:#e9975a;}.cls-2{fill:#fff;}</style></defs><title>Risorsa 9</title><g id="Livello_2" data-name="Livello 2"><g id="Livello_1-2" data-name="Livello 1"><rect class="cls-1" width="520.61" height="488.29"/><path class="cls-2" d="M154.4,392.93a20.22,20.22,0,0,0-7.52-10.39,21.92,21.92,0,0,0-13.16-3.89,24.19,24.19,0,0,0-12.63,3.3,22.77,22.77,0,0,0-8.69,9.52,35.05,35.05,0,0,0,0,29.09,22.78,22.78,0,0,0,8.69,9.46,24.1,24.1,0,0,0,12.63,3.31,21.92,21.92,0,0,0,13.16-3.89,20.22,20.22,0,0,0,7.52-10.39v13.6h8.84V379.33H154.4Zm-2.33,23.35a16.88,16.88,0,0,1-6.46,6.85,18.1,18.1,0,0,1-9.37,2.43q-8.16,0-13.06-5.2T118.28,406q0-9.14,4.9-14.33t13.06-5.19a18.36,18.36,0,0,1,9.37,2.38,16.49,16.49,0,0,1,6.46,6.84A21.87,21.87,0,0,1,154.4,406,21.54,21.54,0,0,1,152.07,416.28Z"/><rect class="cls-2" x="177.32" y="360.78" width="8.84" height="71.86"/><rect class="cls-2" x="200.34" y="360.78" width="8.84" height="71.86"/><path class="cls-2" d="M260.5,382a26.85,26.85,0,0,0-13.55-3.3,27.43,27.43,0,0,0-13.59,3.3,23.27,23.27,0,0,0-9.28,9.52,33.25,33.25,0,0,0,0,29.09,23.3,23.3,0,0,0,9.28,9.46A27.33,27.33,0,0,0,247,433.33a28.74,28.74,0,0,0,12-2.43,22.25,22.25,0,0,0,13-16.7h-9.42a13.49,13.49,0,0,1-5.3,8.69,17.31,17.31,0,0,1-10.73,3.25,17,17,0,0,1-12-4.56q-4.9-4.57-5.2-13.7H272a27,27,0,0,0,.39-4.85,24.87,24.87,0,0,0-3.06-12.24A22.76,22.76,0,0,0,260.5,382Zm3,21.66H229.37q.39-8.75,5.35-13.26A17.48,17.48,0,0,1,247,385.84a18.7,18.7,0,0,1,8.45,1.94,14.25,14.25,0,0,1,6.12,5.92A18.1,18.1,0,0,1,263.46,403.61Z"/><path class="cls-2" d="M292.79,390.11V379.33H284v53.32h8.84V404.58q0-8.83,4.76-12.67t12.23-3.84h2.72v-9.61a22.8,22.8,0,0,0-12,3.06A19.59,19.59,0,0,0,292.79,390.11Z"/><path class="cls-2" d="M334.69,423c-1.26-1.26-1.89-3.6-1.89-7V387h13.79v-7.67H332.8V366h-8.94v13.3h-8V387h8v28.75q0,9.13,4,13t12.19,3.89h6.61v-7.77h-5.44C338.14,424.88,336,424.25,334.69,423Z"/><path class="cls-2" d="M400,379.33v13.6a20.18,20.18,0,0,0-7.53-10.39,21.89,21.89,0,0,0-13.15-3.89,24.19,24.19,0,0,0-12.63,3.3,22.77,22.77,0,0,0-8.69,9.52,35.05,35.05,0,0,0,0,29.09,22.78,22.78,0,0,0,8.69,9.46,24.1,24.1,0,0,0,12.63,3.31,21.89,21.89,0,0,0,13.15-3.89A20.18,20.18,0,0,0,400,419.05v13.6h8.84V379.33Zm-2.33,36.95a16.88,16.88,0,0,1-6.46,6.85,18.1,18.1,0,0,1-9.37,2.43q-8.16,0-13.06-5.2T363.87,406q0-9.14,4.91-14.33t13.06-5.19a18.36,18.36,0,0,1,9.37,2.38,16.49,16.49,0,0,1,6.46,6.84A22,22,0,0,1,400,406,21.66,21.66,0,0,1,397.67,416.28Z"/><path class="cls-2" d="M339.9,238.63H270.11c-.17-14.08-.47-31.83-.46-41.38,0-2.19.83-3.24,2.93-3.89l5.8-1.75A113.31,113.31,0,0,0,312.65,175c13.89-10.09,24.07-23,29.32-39.5a65.51,65.51,0,0,0,1-37.09,4.18,4.18,0,0,0-1-1.74,4.05,4.05,0,0,0-5.51-.54c-2.88,1.81-5.66,3.81-8.64,5.45-5.62,3.08-11.48,5.73-17,9-7.55,4.44-15,9.16-22.31,13.93-11.51,7.48-19.07,18.22-24.1,30.74-2.29,5.71-3.79,11.74-5.59,17.65-.65,2.12-2.17,3.42-4.19,2.87a5.77,5.77,0,0,1-2.76-2.1c-4.52-5.91-9.52-11.26-15.86-15.3a190.77,190.77,0,0,0-24.82-13.38q-11.31-5-22.57-10.15c-2-.91-3.85-2.13-5.84-3a4.23,4.23,0,0,0-5.81,3.13,80.74,80.74,0,0,0,1.3,37.09,64.08,64.08,0,0,0,16.57,29.38c8.87,9,19.73,14.55,31.79,17.91a112.38,112.38,0,0,0,23,3.84c3,.19,4.13,1.45,4.14,4.4,0,1.43.12,6.16.26,11.16H180.7c0,53,35.64,96,79.6,96S339.9,291.65,339.9,238.63ZM275.67,170c1.44-4,2.8-8.07,4.5-12,4.4-10.06,11.77-17.43,20.9-23.39,8.33-5.45,17.05-10.17,25.83-14.81.54-.29,1.14-.48,1.72-.72l.61.26c-.35,2.36-.55,4.76-1.07,7.09a58.54,58.54,0,0,1-18.67,31.31c-8.49,7.61-18.39,12.9-29.06,16.82a3.53,3.53,0,0,1-3.85-.77A3.34,3.34,0,0,1,275.67,170Zm-31.1,37c-12-1.4-23.42-4.65-33.3-12a45.41,45.41,0,0,1-17-24.21c-1.26-4.36-2-8.88-2.84-13.35a23.56,23.56,0,0,1,0-3.89c2.18.88,4.09,1.62,6,2.41a176.09,176.09,0,0,1,31,16,43.26,43.26,0,0,1,13.87,15.68,148.19,148.19,0,0,1,6.38,14C250,204.93,248.14,207.37,244.57,207Z"/></g></g></svg>