<svg xmlns="http://www.w3.org/2000/svg" viewBox="0 0 520.61 488.29"><defs><style>.cls-1{fill:#a7aa64;}.cls-2{fill:#fff;}</style></defs><title>Risorsa 8</title><g id="Livello_2" data-name="Livello 2"><g id="Livello_1-2" data-name="Livello 1"><rect class="cls-1" width="520.61" height="488.29"/><path class="cls-2" d="M220.64,138.05a112.37,112.37,0,0,0,23,3.83c3,.19,4.13,1.45,4.14,4.41,0,1.9.22,13.43.39,22.79A55.91,55.91,0,0,0,236,158.29a190.77,190.77,0,0,0-24.82-13.38q-11.31-5-22.57-10.15c-2-.91-3.85-2.13-5.84-3a4.23,4.23,0,0,0-5.81,3.13,80.74,80.74,0,0,0,1.3,37.09,64.08,64.08,0,0,0,16.57,29.38c8.87,9,19.73,14.55,31.79,17.91a112.38,112.38,0,0,0,23,3.84c3,.19,4.13,1.45,4.14,4.4,0,1.43.12,6.16.26,11.16H180.7c0,53,35.64,96,79.6,96s79.6-43,79.6-96H270.11c-.17-14.08-.47-31.83-.46-41.38,0-2.19.83-3.24,2.93-3.89l5.8-1.75A113.31,113.31,0,0,0,312.65,175c13.89-10.09,24.07-23,29.32-39.5a65.51,65.51,0,0,0,1-37.09,4.18,4.18,0,0,0-1-1.74,4.05,4.05,0,0,0-5.51-.54c-2.88,1.81-5.66,3.81-8.64,5.45-5.62,3.08-11.48,5.73-17,9-7.56,4.44-15,9.16-22.32,13.93-11,7.17-18.42,17.32-23.44,29.17.3-11.82.23-23.83-1.4-30.54-2.89-11.88-17.94-36.55-33.66-46A236.28,236.28,0,0,0,205.2,63.73q-11.31-5-22.57-10.15c-2-.91-3.85-2.13-5.84-3A4.22,4.22,0,0,0,171,53.67a80.69,80.69,0,0,0,1.3,37.08,64,64,0,0,0,16.57,29.38C197.72,129.1,208.58,134.69,220.64,138.05Zm55,31.9c1.44-4,2.8-8.07,4.5-12,4.4-10.06,11.77-17.43,20.9-23.39,8.33-5.45,17.05-10.17,25.83-14.81.54-.29,1.14-.48,1.72-.72l.61.26c-.35,2.36-.55,4.76-1.07,7.09a58.54,58.54,0,0,1-18.67,31.31c-8.49,7.61-18.39,12.9-29.06,16.82a3.53,3.53,0,0,1-3.85-.77A3.34,3.34,0,0,1,275.67,170Zm-31.1,37c-12-1.4-23.42-4.65-33.3-12a45.41,45.41,0,0,1-17-24.21c-1.26-4.36-2-8.88-2.84-13.35a23.56,23.56,0,0,1,0-3.89c2.18.88,4.09,1.62,6,2.41a176.09,176.09,0,0,1,31,16,43.26,43.26,0,0,1,13.87,15.68,148.19,148.19,0,0,1,6.38,14C250,204.93,248.14,207.37,244.57,207ZM185.45,76.2a23.57,23.57,0,0,1,0-3.89c2.18.87,4.09,1.62,6,2.4a177.45,177.45,0,0,1,31,16.05,43.42,43.42,0,0,1,13.87,15.68,147.22,147.22,0,0,1,6.38,14c1.36,3.31-.52,5.75-4.09,5.33-12-1.4-23.42-4.65-33.3-12a45.38,45.38,0,0,1-17-24.2C187,85.19,186.31,80.67,185.45,76.2Z"/><path class="cls-2" d="M152.27,382a24.19,24.19,0,0,0-12.63-3.3,21.74,21.74,0,0,0-13.16,3.93,20,20,0,0,0-7.43,10.35V360.78h-8.83v71.87h8.83v-13.6a20,20,0,0,0,7.43,10.34,21.68,21.68,0,0,0,13.16,3.94A24.1,24.1,0,0,0,152.27,430a22.85,22.85,0,0,0,8.69-9.46,35.16,35.16,0,0,0,0-29.09A22.83,22.83,0,0,0,152.27,382Zm-2,38.41q-4.91,5.2-13.15,5.2a18.21,18.21,0,0,1-9.33-2.43,16.78,16.78,0,0,1-6.5-6.85A21.54,21.54,0,0,1,119,406a21.87,21.87,0,0,1,2.33-10.3,16.39,16.39,0,0,1,6.5-6.84,18.48,18.48,0,0,1,9.33-2.38q8.25,0,13.15,5.19T155.18,406Q155.18,415.16,150.27,420.36Z"/><path class="cls-2" d="M214.22,407.69q0,9-4.37,13.74t-11.65,4.71q-7,0-11.07-4.32t-4.08-12.29v-30.2h-8.84v31.08q0,11.16,5.73,17.14t15,6A21.37,21.37,0,0,0,207,430.07a17.9,17.9,0,0,0,7.23-9.95v12.53h8.84V379.33h-8.84Z"/><path class="cls-2" d="M275.16,382a30.25,30.25,0,0,0-27.48,0,24,24,0,0,0-9.57,9.52,32.05,32.05,0,0,0,0,29.09,24,24,0,0,0,9.57,9.46,30.17,30.17,0,0,0,27.48,0,23.68,23.68,0,0,0,9.52-9.46,32.39,32.39,0,0,0,0-29.09A23.64,23.64,0,0,0,275.16,382Zm1.56,34.92a16,16,0,0,1-6.51,6.55,19.12,19.12,0,0,1-17.58,0,16.1,16.1,0,0,1-6.51-6.55,25.2,25.2,0,0,1,0-21.76,16.1,16.1,0,0,1,6.51-6.55,19.12,19.12,0,0,1,17.58,0,16,16,0,0,1,6.51,6.55,25.2,25.2,0,0,1,0,21.76Z"/><path class="cls-2" d="M327.75,378.46a21,21,0,0,0-12,3.49,18.15,18.15,0,0,0-7.24,10V379.33h-8.84v53.32h8.84V404.39q0-9,4.37-13.75c2.91-3.13,6.8-4.71,11.65-4.71q7,0,11.08,4.28t4.07,12.23v30.21h8.84v-31q0-11.26-5.73-17.24T327.75,378.46Z"/><path class="cls-2" d="M409.57,391.47a23.64,23.64,0,0,0-9.52-9.52,30.25,30.25,0,0,0-27.48,0,24,24,0,0,0-9.57,9.52,32,32,0,0,0,0,29.09,24,24,0,0,0,9.57,9.46,30.17,30.17,0,0,0,27.48,0,23.68,23.68,0,0,0,9.52-9.46,32.39,32.39,0,0,0,0-29.09Zm-8,25.4a16.08,16.08,0,0,1-6.5,6.55,19.12,19.12,0,0,1-17.58,0,16,16,0,0,1-6.51-6.55,25.2,25.2,0,0,1,0-21.76,16,16,0,0,1,6.51-6.55,19.12,19.12,0,0,1,17.58,0,16.08,16.08,0,0,1,6.5,6.55,25.11,25.11,0,0,1,0,21.76Z"/></g></g></svg>