<svg xmlns="http://www.w3.org/2000/svg" viewBox="0 0 520.61 488.29"><defs><style>.cls-1{fill:#b63e23;}.cls-2{fill:#fff;}</style></defs><title>Risorsa 10</title><g id="Livello_2" data-name="Livello 2"><g id="Livello_1-2" data-name="Livello 1"><rect class="cls-1" width="520.61" height="488.29"/><path class="cls-2" d="M131,388.56a17.12,17.12,0,0,1,8.5-2.14,17.39,17.39,0,0,1,10.73,3.25,13.66,13.66,0,0,1,5.29,9h9.32a23,23,0,0,0-8.25-14.57q-6.71-5.44-16.9-5.44a27.47,27.47,0,0,0-13.6,3.3,23.24,23.24,0,0,0-9.27,9.52,33.25,33.25,0,0,0,0,29.09,23.27,23.27,0,0,0,9.27,9.46,27.37,27.37,0,0,0,13.6,3.31q10.2,0,16.9-5.39a22.89,22.89,0,0,0,8.25-14.62h-9.32a13.82,13.82,0,0,1-5.29,9A18.61,18.61,0,0,1,131,423.52a15.59,15.59,0,0,1-6.17-6.56,26.78,26.78,0,0,1,0-21.85A15.56,15.56,0,0,1,131,388.56Z"/><path class="cls-2" d="M185.24,390.11V379.33H176.4v53.32h8.84V404.58q0-8.83,4.75-12.67c3.18-2.56,7.25-3.84,12.24-3.84H205v-9.61a22.78,22.78,0,0,0-12,3.06A19.53,19.53,0,0,0,185.24,390.11Z"/><path class="cls-2" d="M218.16,358.26a6.23,6.23,0,0,0-4.37,1.5,5.52,5.52,0,0,0,0,7.87,7.12,7.12,0,0,0,8.74,0,5.52,5.52,0,0,0,0-7.87A6.25,6.25,0,0,0,218.16,358.26Z"/><rect class="cls-2" x="213.69" y="379.33" width="8.84" height="53.32"/><path class="cls-2" d="M250.16,423c-1.27-1.26-1.9-3.6-1.9-7V387h13.79v-7.67H248.26V366h-8.93v13.3h-8V387h8v28.75q0,9.13,4,13t12.19,3.89h6.6v-7.77h-5.44Q252,424.88,250.16,423Z"/><rect class="cls-2" x="272.93" y="379.33" width="8.84" height="53.32"/><path class="cls-2" d="M277.39,358.26a6.25,6.25,0,0,0-4.37,1.5,5.52,5.52,0,0,0,0,7.87,7.12,7.12,0,0,0,8.74,0,5.49,5.49,0,0,0,0-7.87A6.23,6.23,0,0,0,277.39,358.26Z"/><path class="cls-2" d="M310.85,388.56a17.12,17.12,0,0,1,8.5-2.14,17.39,17.39,0,0,1,10.73,3.25,13.66,13.66,0,0,1,5.29,9h9.33a23.06,23.06,0,0,0-8.26-14.57q-6.7-5.44-16.9-5.44A27.43,27.43,0,0,0,306,382a23.33,23.33,0,0,0-9.28,9.52,33.25,33.25,0,0,0,0,29.09A23.36,23.36,0,0,0,306,430a27.33,27.33,0,0,0,13.59,3.31q10.2,0,16.9-5.39a23,23,0,0,0,8.26-14.62h-9.33a13.82,13.82,0,0,1-5.29,9,18.61,18.61,0,0,1-19.23,1.17,15.59,15.59,0,0,1-6.17-6.56,26.78,26.78,0,0,1,0-21.85A15.56,15.56,0,0,1,310.85,388.56Z"/><path class="cls-2" d="M403.69,391.47a23.64,23.64,0,0,0-9.52-9.52,30.25,30.25,0,0,0-27.48,0,24,24,0,0,0-9.57,9.52,32.05,32.05,0,0,0,0,29.09,24,24,0,0,0,9.57,9.46,30.17,30.17,0,0,0,27.48,0,23.68,23.68,0,0,0,9.52-9.46,32.39,32.39,0,0,0,0-29.09Zm-8,25.4a16,16,0,0,1-6.51,6.55,19.12,19.12,0,0,1-17.58,0,16.08,16.08,0,0,1-6.5-6.55,25.11,25.11,0,0,1,0-21.76,16.08,16.08,0,0,1,6.5-6.55,19.12,19.12,0,0,1,17.58,0,16,16,0,0,1,6.51,6.55,25.2,25.2,0,0,1,0,21.76Z"/><path class="cls-2" d="M339.9,238.63H270.34c.16-14.09.3-31.88-.69-41.38-.45-4.24-7.11-14-12.75-20.93a52.47,52.47,0,0,0-6.48-6.6c-3.44-2.94-9.78-8.49-14.4-11.43a190.77,190.77,0,0,0-24.82-13.38q-11.31-5-22.57-10.15c-2-.91-3.85-2.13-5.84-3a4.23,4.23,0,0,0-5.81,3.13,80.74,80.74,0,0,0,1.3,37.09,64.08,64.08,0,0,0,16.57,29.38c8.87,9,19.73,14.55,31.79,17.91a112.38,112.38,0,0,0,23,3.84c3,.19,4.13,1.45,4.14,4.4,0,1.43.12,6.16.26,11.16H180.7c0,53,35.64,96,79.6,96S339.9,291.65,339.9,238.63ZM244.57,207c-12-1.4-23.42-4.65-33.3-12a45.41,45.41,0,0,1-17-24.21c-1.26-4.36-2-8.88-2.84-13.35a23.56,23.56,0,0,1,0-3.89c2.18.88,4.09,1.62,6,2.41a176.09,176.09,0,0,1,31,16,43.26,43.26,0,0,1,13.87,15.68,148.19,148.19,0,0,1,6.38,14C250,204.93,248.14,207.37,244.57,207Z"/></g></g></svg>