<svg xmlns="http://www.w3.org/2000/svg" viewBox="0 0 155.9 191.6"><defs><style>.cls-1{fill:#495924;}</style></defs><title>Risorsa 11</title><g id="Livello_2" data-name="Livello 2"><g id="Livello_1-2" data-name="Livello 1"><path class="cls-1" d="M154.46,36.36a3.88,3.88,0,0,0-5.34-2.87c-1.83.84-3.53,1.95-5.36,2.79Q133.43,41,123,45.6a173,173,0,0,0-22.79,12.28c-5.83,3.71-10.41,8.63-14.56,14.06a5.35,5.35,0,0,1-2.54,1.92c-1.85.51-3.25-.69-3.85-2.64-1.65-5.42-3-11-5.13-16.2C69.55,43.52,62.61,33.67,52,26.8,45.29,22.41,38.49,18.08,31.55,14,26.49,11,21.11,8.59,16,5.76c-2.74-1.5-5.29-3.33-7.94-5a3.71,3.71,0,0,0-5,.5,3.7,3.7,0,0,0-1,1.6A60,60,0,0,0,3,36.91c4.81,15.19,14.16,27,26.92,36.27A103.9,103.9,0,0,0,61.35,88.47c1.78.54,3.56,1.07,5.33,1.62,1.93.59,2.69,1.56,2.69,3.56,0,2.81,0,5.83.11,9v89H82V118.42c.25-2,1.34-2.91,3.74-3.06a103.83,103.83,0,0,0,21.16-3.52c11.07-3.08,23-8.21,31.19-16.45,7.51-7.59,12.51-14.65,15.21-25A74.09,74.09,0,0,0,154.46,36.36Z"/></g></g></svg>