<svg xmlns="http://www.w3.org/2000/svg" viewBox="0 0 520.61 488.29"><defs><style>.cls-1{fill:#495924;}.cls-2{fill:#fff;}</style></defs><title>Risorsa 7</title><g id="Livello_2" data-name="Livello 2"><g id="Livello_1-2" data-name="Livello 1"><rect class="cls-1" width="520.61" height="488.29"/><path class="cls-2" d="M176.69,405.8a71,71,0,0,0-9.57-2.77,75.9,75.9,0,0,1-7.33-2,11.59,11.59,0,0,1-4.47-2.72,6.36,6.36,0,0,1-1.79-4.71,7.7,7.7,0,0,1,2.67-6.17c1.78-1.52,4.25-2.28,7.43-2.28q5.63,0,9,3.06a12.24,12.24,0,0,1,3.93,7.81H185a19.81,19.81,0,0,0-6.65-12.67q-5.49-4.71-14.52-4.71-8.55,0-13.5,4.13a13.41,13.41,0,0,0-4.95,10.83,12.12,12.12,0,0,0,2.48,8,14.53,14.53,0,0,0,6,4.32,72.81,72.81,0,0,0,9.47,2.72,65.49,65.49,0,0,1,7.47,2,12.11,12.11,0,0,1,4.57,2.82,6.69,6.69,0,0,1,1.84,5,7.9,7.9,0,0,1-2.57,6.12,10.28,10.28,0,0,1-7.14,2.33q-6.12,0-9.86-3a11.13,11.13,0,0,1-4.22-7.87h-8.55A18.24,18.24,0,0,0,152,428.76q6,4.58,15.54,4.57,8.16,0,13.06-4.08a13.13,13.13,0,0,0,4.91-10.59,12.67,12.67,0,0,0-2.58-8.35A14.84,14.84,0,0,0,176.69,405.8Z"/><path class="cls-2" d="M239.86,392.93a20.22,20.22,0,0,0-7.52-10.39,21.92,21.92,0,0,0-13.16-3.89,24.19,24.19,0,0,0-12.63,3.3,22.77,22.77,0,0,0-8.69,9.52,35.05,35.05,0,0,0,0,29.09,22.87,22.87,0,0,0,8.69,9.47,24.19,24.19,0,0,0,12.63,3.3,21.92,21.92,0,0,0,13.16-3.89,20.22,20.22,0,0,0,7.52-10.39v13.6h8.84V379.33h-8.84Zm-2.33,23.35a16.88,16.88,0,0,1-6.46,6.85,18.1,18.1,0,0,1-9.37,2.43q-8.16,0-13.06-5.2T203.74,406q0-9.14,4.9-14.33t13.06-5.19a18.36,18.36,0,0,1,9.37,2.38,16.49,16.49,0,0,1,6.46,6.84,22,22,0,0,1,2.33,10.3A21.66,21.66,0,0,1,237.53,416.28Z"/><path class="cls-2" d="M290.85,378.46a21,21,0,0,0-12,3.49,18.18,18.18,0,0,0-7.23,10V379.33h-8.84v53.32h8.84V404.39q0-9,4.37-13.74t11.65-4.71q7,0,11.07,4.27t4.08,12.23v30.21h8.84v-31q0-11.26-5.73-17.24T290.85,378.46Z"/><path class="cls-2" d="M372.66,391.47a23.62,23.62,0,0,0-9.51-9.52,30.28,30.28,0,0,0-27.49,0,24,24,0,0,0-9.56,9.52,32,32,0,0,0,0,29.09,24.12,24.12,0,0,0,9.56,9.47,30.28,30.28,0,0,0,27.49,0,23.74,23.74,0,0,0,9.51-9.47,32.39,32.39,0,0,0,0-29.09Zm-8,25.4a16,16,0,0,1-6.51,6.55,19.1,19.1,0,0,1-17.57,0,16,16,0,0,1-6.51-6.55,25.11,25.11,0,0,1,0-21.76,16,16,0,0,1,6.51-6.55,19.1,19.1,0,0,1,17.57,0,16,16,0,0,1,6.51,6.55,25.11,25.11,0,0,1,0,21.76Z"/><path class="cls-2" d="M339.9,238.63H270c-.16-11.7-.34-24-.33-31.38,0-2.19.83-3.24,2.93-3.89l5.8-1.75A113.31,113.31,0,0,0,312.65,185c13.89-10.09,24.07-23,29.32-39.5a65.51,65.51,0,0,0,1-37.09,4.18,4.18,0,0,0-1-1.74,4.05,4.05,0,0,0-5.51-.54c-2.88,1.81-5.66,3.81-8.64,5.45-5.62,3.08-11.48,5.73-17,9-7.55,4.44-15,9.16-22.31,13.93-11.51,7.48-19.07,18.22-24.1,30.74-.14.35-.27.71-.41,1.07-.16-15.25-.37-32.29-.36-40.18,0-2.18.83-3.24,2.93-3.88l5.8-1.76a113.28,113.28,0,0,0,34.27-16.65c13.89-10.09,24.07-23,29.32-39.5a65.51,65.51,0,0,0,1-37.09,4.18,4.18,0,0,0-1-1.74,4,4,0,0,0-5.51-.54c-2.88,1.81-5.66,3.81-8.64,5.44-5.62,3.08-11.48,5.74-17,9-7.55,4.43-15,9.15-22.31,13.93C271,60.73,263.45,71.46,258.42,84c-2.29,5.71-3.79,11.74-5.59,17.64-.65,2.13-2.17,3.43-4.19,2.88a5.9,5.9,0,0,1-2.77-2.1C241.36,96.5,236.36,91.14,230,87.1A190.7,190.7,0,0,0,205.2,73.73q-11.31-5-22.57-10.15c-2-.91-3.85-2.13-5.84-3A4.22,4.22,0,0,0,171,63.67a80.69,80.69,0,0,0,1.3,37.08,64,64,0,0,0,16.57,29.38c8.87,9,19.73,14.56,31.79,17.92a112.37,112.37,0,0,0,23,3.83c3,.19,4.13,1.45,4.14,4.41,0,1.9.22,13.43.39,22.79A55.91,55.91,0,0,0,236,168.29a190.77,190.77,0,0,0-24.82-13.38q-11.31-5-22.57-10.15c-2-.91-3.85-2.13-5.84-3a4.23,4.23,0,0,0-5.81,3.13,80.74,80.74,0,0,0,1.3,37.09,64.08,64.08,0,0,0,16.57,29.38c8.87,9,19.73,14.55,31.79,17.91a112.38,112.38,0,0,0,23,3.84c3,.19,4.13,1.45,4.14,4.4,0,.27,0,.67,0,1.16H180.7c0,53,35.64,96,79.6,96S339.9,291.65,339.9,238.63ZM275.67,180c1.44-4,2.8-8.07,4.5-12,4.4-10.06,11.77-17.43,20.9-23.39,8.33-5.45,17.05-10.17,25.83-14.81.54-.29,1.14-.48,1.72-.72l.61.26c-.35,2.36-.55,4.76-1.07,7.09a58.54,58.54,0,0,1-18.67,31.31c-8.49,7.61-18.39,12.9-29.06,16.82a3.53,3.53,0,0,1-3.85-.77A3.34,3.34,0,0,1,275.67,180Zm-6-81.18c1.44-4,2.8-8.08,4.5-12,4.4-10.06,11.77-17.43,20.9-23.4,8.33-5.44,17.05-10.16,25.83-14.8.54-.29,1.14-.48,1.72-.72l.61.25c-.35,2.37-.55,4.77-1.07,7.1a58.54,58.54,0,0,1-18.67,31.31c-8.49,7.61-18.39,12.9-29.06,16.82a3.51,3.51,0,0,1-3.85-.78A3.32,3.32,0,0,1,269.67,98.77Zm-31.1,37c-12-1.4-23.42-4.65-33.3-12a45.38,45.38,0,0,1-17-24.2c-1.26-4.36-2-8.88-2.84-13.35a23.57,23.57,0,0,1,0-3.89c2.18.87,4.09,1.62,6,2.4a177.45,177.45,0,0,1,31,16.05,43.42,43.42,0,0,1,13.87,15.68,147.22,147.22,0,0,1,6.38,14C244,133.75,242.14,136.19,238.57,135.77Zm6,81.19c-12-1.4-23.42-4.65-33.3-12a45.41,45.41,0,0,1-17-24.21c-1.26-4.36-2-8.88-2.84-13.35a23.56,23.56,0,0,1,0-3.89c2.18.88,4.09,1.62,6,2.41a176.09,176.09,0,0,1,31,16,43.26,43.26,0,0,1,13.87,15.68,148.19,148.19,0,0,1,6.38,14C250,214.93,248.14,217.37,244.57,217Z"/></g></g></svg>